<svg width="252" height="376" viewBox="0 0 252 376" fill="none" xmlns="http://www.w3.org/2000/svg">
<path fill-rule="evenodd" clip-rule="evenodd" d="M189.662 185.233C189.31 187.412 188.452 189.486 187.152 191.299C185.853 193.112 184.146 194.618 182.159 195.703C178.157 198.2 174.656 199.448 171.112 200.696C163.568 203.213 155.627 205.73 147.228 208.649C138.37 211.569 130.429 214.488 123.343 216.602C114.506 219.522 106.106 222.038 98.1239 224.958C92.1182 227.44 86.4771 230.676 81.3461 234.582C76.5741 238.758 72.4095 243.54 68.966 248.797C65.4229 254.635 63.1928 262.166 63.1928 270.944C63.1928 288.521 67.6113 301.89 76.4691 310.246C85.3061 319.044 101.688 323.212 125.969 323.212C150.729 323.212 167.528 318.621 176.406 309.42C185.222 300.219 189.641 287.273 189.641 270.561V185.233H189.662ZM125.99 0C169.341 0 201.166 7.95295 221.487 24.2615C241.829 40.1674 252 60.6237 252 84.8651V291.44C252 299.796 250.249 308.997 247.165 319.024C244.038 329.091 237.869 338.272 228.136 346.608C218.861 355.004 206.043 362.111 189.683 367.547C173.322 372.983 152.105 375.903 126.01 375.903C99.958 375.903 78.6992 372.983 62.3591 367.547C46.019 362.111 33.1804 355.004 23.9057 346.608C15.2778 339.097 8.74174 329.612 4.89786 319.024C1.77157 309.017 0 299.816 0 291.461V258.441C0 240.864 4.85617 224.555 14.5894 210.32C24.3226 195.703 38.0157 185.676 55.7105 179.394C64.5475 176.475 74.7184 173.556 86.2023 169.79C97.7071 166.005 108.295 162.24 118.924 158.918C129.554 155.556 138.828 152.193 146.769 149.254C151.561 147.402 156.428 145.736 161.358 144.261L169.32 140.495C172.446 138.824 175.51 136.308 178.615 132.965C181.7 129.643 184.347 125.878 186.577 121.69C188.933 117.155 190.147 112.147 190.12 107.073V93.6838C190.153 88.7766 189.086 83.9206 186.994 79.449C185.243 74.4155 181.7 69.8249 176.844 65.6572C171.988 61.4693 165.339 58.127 157.398 55.5901C149.437 53.1136 138.849 51.8452 126.886 51.8452C102.126 51.8452 85.7646 56.476 76.9276 66.0599C69.4245 74.4356 65.006 84.8852 64.1307 96.5831C64.1307 99.0998 61.9214 100.771 59.2537 100.771L5.33554 101.617C4.05476 101.622 2.82362 101.138 1.91019 100.271C0.996758 99.4038 0.475002 98.2229 0.458523 96.9857V84.9053C0.458523 73.1672 2.68861 62.2948 7.54478 51.8452C12.4218 41.3755 19.9457 32.6172 30.0958 25.0669C40.2666 17.5569 53.543 11.2952 69.4454 7.10732C84.9309 2.07381 103.939 0 126.031 0H125.99Z" fill="white"/>
</svg>
